<svg xmlns="http://www.w3.org/2000/svg" viewBox="0 0 411.67 162.11"><defs><style>.cls-1{fill:#e9b9b5;stroke:#000;stroke-miterlimit:10;stroke-width:0.75px;fill-rule:evenodd;}</style></defs><g id="Layer_2" data-name="Layer 2"><g id="Layer_3" data-name="Layer 3"><path class="cls-1" d="M411.3,40v.34a1.27,1.27,0,0,0,0-.2A.71.71,0,0,0,411.3,40Z"/><path class="cls-1" d="M411.3,40.38v81.36c0,22.09-92,40-205.46,40S.38,143.83.38,121.74V40.38C.38,47.93,11.16,55,29.88,61c5.9,1.89,12.58,3.7,20,5.37,4.58,1,9.43,2,14.51,3,36.85,6.82,86.66,11,141.49,11s104.64-4.18,141.48-11c4.89-.91,9.56-1.86,14-2.85a213,213,0,0,0,26.27-7.48c15-5.5,23.5-11.76,23.72-18.41A2.26,2.26,0,0,0,411.3,40.38Z"/><path class="cls-1" d="M411.3,40.38a2.26,2.26,0,0,1,0,.26c-.22,6.65-8.76,12.91-23.72,18.41a213,213,0,0,1-26.27,7.48c-4.42,1-9.09,1.94-14,2.85-36.84,6.82-86.65,11-141.48,11S101.2,76.2,64.35,69.38c-5.08-.95-9.93-1.93-14.51-3-7.38-1.67-14.06-3.48-20-5.37C11.16,55,.38,47.93.38,40.38c0-.1,0-.2,0-.3C1.21,18.12,92.88.38,205.84.38c113.13,0,204.91,17.8,205.45,39.8A1.27,1.27,0,0,1,411.3,40.38Z"/></g></g></svg>